<svg xmlns="http://www.w3.org/2000/svg" version="1.1" xmlns:xlink="http://www.w3.org/1999/xlink" xmlns:svgjs="http://svgjs.dev/svgjs" width="2000" height="545" viewBox="0 0 2000 545"><g transform="matrix(1,0,0,1,-1.2121212121207918,0.6678674921308811)"><svg viewBox="0 0 396 108" data-background-color="#010536" preserveAspectRatio="xMidYMid meet" height="545" width="2000" xmlns="http://www.w3.org/2000/svg" xmlns:xlink="http://www.w3.org/1999/xlink"><g id="tight-bounds" transform="matrix(1,0,0,1,0.23999999999992383,-0.13234805348648138)"><svg viewBox="0 0 395.5199999999999 108.26469610697298" height="108.26469610697298" width="395.5199999999999"><g><svg viewBox="0 0 719.5019130220319 196.94745135951658" height="108.26469610697298" width="395.5199999999999"><g><rect width="17.67256160534429" height="196.94745135951658" x="260.0461011409173" y="0" fill="#fbfbf8" opacity="1" stroke-width="0" stroke="transparent" fill-opacity="1" class="rect-qz-0" data-fill-palette-color="primary" rx="1%" id="qz-0" data-palette-color="#fbfbf8"></rect></g><g transform="matrix(1,0,0,1,323.981913022032,0.4899190332326242)"><svg viewBox="0 0 395.52 195.96761329305133" height="195.96761329305133" width="395.52"><g id="textblocktransform"><svg viewBox="0 0 395.52 195.96761329305133" height="195.96761329305133" width="395.52" id="textblock"><g><svg viewBox="0 0 395.52 195.96761329305133" height="195.96761329305133" width="395.52"><g transform="matrix(1,0,0,1,0,0)"><svg width="395.52" viewBox="1.12 -35.55 72.72999999999999 36.04" height="195.96761329305133" data-palette-color="#fbfbf8"><path d="M18.12-10.72L18.12-35.55 24.41-35.55 24.41-10.72Q24.41-7.18 22.9-4.68 21.39-2.17 18.75-0.84 16.11 0.49 12.77 0.49L12.77 0.49Q9.38 0.49 6.75-0.67 4.13-1.83 2.62-4.21 1.12-6.59 1.12-10.23L1.12-10.23 7.42-10.23Q7.42-7.18 8.9-5.87 10.38-4.57 12.77-4.57L12.77-4.57Q14.36-4.57 15.55-5.29 16.75-6.01 17.43-7.37 18.12-8.74 18.12-10.72L18.12-10.72ZM38.03-35.55L38.03 0 31.76 0 31.76-35.55 38.03-35.55ZM73.85-35.55L73.85 0 67.52 0 51.85-25.05 51.85 0 45.55 0 45.55-35.55 51.85-35.55 67.57-10.45 67.57-35.55 73.85-35.55Z" opacity="1" transform="matrix(1,0,0,1,0,0)" fill="#fbfbf8" class="wordmark-text-0" data-fill-palette-color="primary" id="text-0"></path></svg></g></svg></g></svg></g></svg></g><g transform="matrix(1,0,0,1,0,0.4899190332326242)"><svg viewBox="0 0 213.7828508651469 195.96761329305133" height="195.96761329305133" width="213.7828508651469"><g><svg xmlns="http://www.w3.org/2000/svg" xmlns:xlink="http://www.w3.org/1999/xlink" version="1.1" x="0" y="0" viewBox="0 1 24 22" style="enable-background:new 0 0 24 24;" xml:space="preserve" height="195.96761329305133" width="213.7828508651469" class="icon-icon-0" data-fill-palette-color="accent" id="icon-0"><g fill="#ff6347" data-fill-palette-color="accent"><path d="M21.5 1h-19C1.122 1 0 2.122 0 3.5v17C0 21.878 1.122 23 2.5 23h19c1.378 0 2.5-1.122 2.5-2.5v-17C24 2.122 22.878 1 21.5 1zM2.5 2h19C22.327 2 23 2.673 23 3.5V5H1V3.5C1 2.673 1.673 2 2.5 2zM21.5 22h-19C1.673 22 1 21.327 1 20.5V6h22v14.5C23 21.327 22.327 22 21.5 22z" fill="#ff6347" data-fill-palette-color="accent"></path><circle cx="2.5" cy="3.5" r="0.50" fill="#ff6347" data-fill-palette-color="accent"></circle><circle cx="4.5" cy="3.5" r="0.50" fill="#ff6347" data-fill-palette-color="accent"></circle><circle cx="6.5" cy="3.5" r="0.50" fill="#ff6347" data-fill-palette-color="accent"></circle><path d="M7.853 10.148c-0.195-0.195-0.512-0.195-0.707 0s-0.195 0.512 0 0.707l2.646 2.646-2.646 2.646c-0.195 0.195-0.195 0.512 0 0.707C7.244 16.951 7.372 17 7.5 17s0.256-0.049 0.353-0.145l3-3c0.195-0.195 0.195-0.512 0-0.707L7.853 10.148z" fill="#ff6347" data-fill-palette-color="accent"></path><path d="M17.5 15h-5c-0.276 0-0.5 0.224-0.5 0.5s0.224 0.5 0.5 0.5h5c0.276 0 0.5-0.224 0.5-0.5S17.776 15 17.5 15z" fill="#ff6347" data-fill-palette-color="accent"></path></g></svg></g></svg></g></svg></g><defs></defs></svg><rect width="395.5199999999999" height="108.26469610697298" fill="none" stroke="none" visibility="hidden"></rect></g></svg></g></svg>